<svg width="300" height="293" viewBox="0 0 300 293" fill="none" xmlns="http://www.w3.org/2000/svg">
<path d="M172.869 211.849V265.737H226.756L172.869 211.849Z" fill="black"/>
<path d="M230.736 108.423L176.814 108.459L122.963 162.31L176.832 162.327L230.736 108.423Z" fill="black"/>
<rect x="176.834" y="19.9512" width="53.8716" height="53.8716" transform="rotate(90 176.834 19.9512)" fill="#FFC8AF"/>
<path d="M203.703 135.366H257.591L257.591 81.4789L203.703 135.366Z" fill="black"/>
<path d="M199.171 238.428L122.963 162.22L199.171 162.22L199.171 238.428Z" fill="black"/>
<path d="M53.8872 92.5898L53.8872 200.364L161.661 200.364L53.8872 92.5898Z" fill="black"/>
<path d="M123.33 162.399L123.33 54.6252L15.5554 54.6252L123.33 162.399Z" fill="#FF4848"/>
<circle cx="165.185" cy="42.1734" r="3.7037" fill="black"/>
<circle cx="272.222" cy="46.2475" r="27.7778" fill="black"/>
</svg>
