<svg width="301" height="365" viewBox="0 0 301 365" fill="none" xmlns="http://www.w3.org/2000/svg">
<path d="M224.625 363.181L173.089 311.645L121.553 363.181L224.625 363.181Z" fill="black"/>
<path d="M148.978 218.471L149.026 291.403L221.861 364.237L221.885 291.379L148.978 218.471Z" fill="black"/>
<rect x="160.352" y="0.0634766" width="72.8625" height="72.8625" transform="rotate(90 160.352 0.0634766)" fill="#FFC8AF"/>
<path d="M248.79 363.623L300.327 312.086L248.79 260.55L248.79 363.623Z" fill="black"/>
<path d="M248.671 321.544L145.598 218.472L248.671 218.472L248.671 321.544Z" fill="black"/>
<path d="M146.094 218.714L146.094 72.9468L0.326652 72.9468L146.094 218.714Z" fill="#FF4848"/>
<path d="M145.345 73.2002L145.345 218.967H291.112L145.345 73.2002Z" fill="#FF4848"/>
<circle cx="104.521" cy="31.0591" r="5.00934" fill="black"/>
</svg>
