<svg width="301" height="296" viewBox="0 0 301 296" fill="none" xmlns="http://www.w3.org/2000/svg">
<path d="M246.834 161.623L286.034 122.423L246.834 82.1475L246.834 161.623Z" fill="#E13C3C"/>
<path d="M0.722838 207.009L39.97 246.256L79.2172 207.009L0.722838 207.009Z" fill="black"/>
<path d="M135.618 128.391L57.1239 206.885H135.618V128.391Z" fill="black"/>
<path d="M285.289 122.313L285.289 201.257L246.834 240.241L246.834 160.833L285.289 122.313Z" fill="#E13C3C"/>
<path d="M246.745 82.1475L168.215 161.892L246.745 240.117L246.745 82.1475Z" fill="#FF4848"/>
<path d="M281.008 34.3534L266.576 88.2157L212.713 73.7833L227.146 19.921L281.008 34.3534Z" fill="#FFC8AF"/>
<path d="M134.844 128.294L135.191 239.649L246.546 239.995L134.844 128.294Z" fill="#333333"/>
<circle cx="231.051" cy="50.2068" r="4.09836" fill="black"/>
</svg>
