<svg width="300" height="489" viewBox="0 0 300 489" fill="none" xmlns="http://www.w3.org/2000/svg">
<path d="M67.6636 386.129V454.143H135.677L67.6636 386.129Z" fill="#EEEEEE"/>
<rect x="204.079" y="96" width="67.9941" height="67.9941" transform="rotate(45 204.079 96)" fill="white"/>
<path d="M86.4245 309.464L38.3315 357.557L86.4245 405.65L86.4245 309.464Z" fill="white"/>
<path d="M203.814 1.14701e-06L300 96.1859L203.814 96.1859L203.814 1.14701e-06Z" fill="#F0B55D"/>
<path d="M204.041 192.014H68.0136V328.041L204.041 192.014Z" fill="#EEEEEE"/>
<path d="M204.372 192.186L108.186 95.9997L11.9998 192.186L204.372 192.186Z" fill="white"/>
<path d="M156.133 144.278L204.225 96.1212L204.225 2.1022e-06L156.133 48.0606L156.133 144.278Z" fill="white"/>
<circle cx="193.478" cy="42.3908" r="5.43478" fill="black"/>
</svg>
