<svg width="300" height="269" viewBox="0 0 300 269" fill="none" xmlns="http://www.w3.org/2000/svg">
<path d="M217.228 6.86646e-05L258.614 41.3862L300 6.50465e-05L217.228 6.86646e-05Z" fill="#CF9B4D"/>
<path d="M217.228 165.189L258.613 123.748L258.613 41.0317L217.228 82.3901L217.228 165.189Z" fill="#F0B55D"/>
<rect x="134.359" y="103.324" width="58.512" height="58.512" transform="rotate(-45 134.359 103.324)" fill="#CF9B4D"/>
<path d="M217.228 82.7725L258.614 41.3863L217.228 0.000133711L217.228 82.7725Z" fill="#F0B55D"/>
<path d="M175.79 144.615L58.7319 144.615L117.261 86.0863L175.79 144.615Z" fill="#CF9B4D"/>
<path d="M217.132 102.981L134.36 185.754L217.132 268.526L217.132 102.981Z" fill="#F0B55D"/>
<path d="M175.587 144.615H58.5292V261.673L175.587 144.615Z" fill="#F0B55D"/>
<circle cx="254.237" cy="16.8953" r="4.02273" fill="black"/>
</svg>
