<svg width="300" height="208" viewBox="0 0 300 208" fill="none" xmlns="http://www.w3.org/2000/svg">
<path d="M300 68.3631L266.003 34.3662L232.006 68.3631L300 68.3631Z" fill="#333333"/>
<path d="M2.04472e-05 183.955L48.1106 183.923L96.1572 135.876L48.0946 135.86L2.04472e-05 183.955Z" fill="black"/>
<rect x="198.3" y="34.6479" width="48.065" height="48.065" transform="rotate(-45 198.3 34.6479)" fill="black"/>
<path d="M153.94 172.785L119.944 138.789L85.9466 172.785L153.94 172.785Z" fill="black"/>
<path d="M27.7878 136.067L95.7817 68.0728V136.067H27.7878Z" fill="black"/>
<path d="M191.852 67.9053H95.6938V164.063L191.852 67.9053Z" fill="black"/>
<path d="M231.848 67.9937L163.854 -0.00018905L95.8605 67.9936L231.848 67.9937Z" fill="black"/>
<circle cx="243.241" cy="34.3668" r="6.609" fill="white"/>
</svg>
