<svg width="302" height="450" viewBox="0 0 302 450" fill="none" xmlns="http://www.w3.org/2000/svg">
<path d="M77.1951 208.981L130.182 155.994L77.1951 103.007L77.1951 208.981Z" fill="#FFC8AF"/>
<path d="M100.886 37.4674L175.871 37.5173L250.755 112.402L175.846 112.427L100.886 37.4674Z" fill="#E13C3C"/>
<rect x="83.3755" y="224.994" width="74.9134" height="74.9134" transform="rotate(-45 83.3755 224.994)" fill="#FFC8AF"/>
<path d="M1.9998 187.212H76.9348V112.277L1.9998 187.212Z" fill="#FFC8AF" stroke="#FFC8AF"/>
<path d="M77.1949 7.21094L183.169 113.185L77.1949 113.185L77.1949 7.21094Z" fill="#E13C3C"/>
<path d="M40.1123 374.425H189.982L189.982 224.555L40.1123 374.425Z" fill="#FF4848"/>
<path d="M227.065 261.889L227.065 112.019L77.195 112.019L227.065 261.889Z" fill="#FF4848"/>
<circle cx="88.5258" cy="140.09" r="5.15034" fill="black"/>
<circle cx="226.555" cy="261.638" r="15.451" fill="white"/>
</svg>
