<svg width="300" height="151" viewBox="0 0 300 151" fill="none" xmlns="http://www.w3.org/2000/svg">
<path d="M187.586 112.876L149.756 75.0967L74.248 75.0967L112.002 112.876L187.586 112.876Z" fill="#232323"/>
<path d="M299.578 75.0952L261.799 112.875L299.578 150.655V75.0952Z" fill="#232323"/>
<rect x="262.231" y="37.7588" width="53.4133" height="53.4133" transform="rotate(45 262.231 37.7588)" fill="#232323"/>
<path d="M263.554 38.2022L225.774 0.422362L187.994 38.2022L263.554 38.2022Z" fill="#232323"/>
<path d="M76.0032 75.0961L0.44352 150.656L0.443513 75.0961L76.0032 75.0961Z" fill="#232323"/>
<path d="M151.119 75.5596L75.5597 -7.73177e-05L7.62939e-05 75.5596L151.119 75.5596Z" fill="#232323"/>
<path d="M112.453 37.7607L188.013 113.32L263.572 37.7607L112.453 37.7607Z" fill="black"/>
<circle cx="163.682" cy="57.7303" r="8.6829" fill="#FF4848"/>
<circle cx="208.833" cy="57.7303" r="8.6829" fill="#FF4848"/>
</svg>
