<svg width="1010" height="1010" viewBox="0 0 1010 1010" fill="none" xmlns="http://www.w3.org/2000/svg">
<path d="M5 5L505 505L1005 5H5Z" fill="white" stroke="black" stroke-width="4"/>
<path d="M5 1005L505 505L4.99996 5L5 1005Z" fill="white" stroke="black" stroke-width="4"/>
<path d="M505 1005L1005 505V1005H505Z" fill="white" stroke="black" stroke-width="4"/>
<rect x="505" y="504.928" width="353.451" height="353.451" transform="rotate(-45 505 504.928)" fill="white" stroke="black" stroke-width="4"/>
<path d="M1005 5L755 255L1005 505V5Z" fill="white" stroke="black" stroke-width="4"/>
<path d="M755 755L505 505L255 755L755 755Z" fill="white" stroke="black" stroke-width="4"/>
<path d="M755 755L504.667 1005H5L254.833 755H755Z" fill="white" stroke="black" stroke-width="4"/>
<path d="M512.596 255H503.514V194.795L485.301 201.484V193.281L511.18 183.564H512.596V255Z" fill="black"/>
<path d="M196.49 540H149.908V533.506L174.518 506.162C178.163 502.028 180.67 498.675 182.037 496.104C183.437 493.499 184.137 490.814 184.137 488.047C184.137 484.336 183.014 481.292 180.768 478.916C178.521 476.54 175.527 475.352 171.783 475.352C167.291 475.352 163.792 476.637 161.285 479.209C158.811 481.748 157.574 485.296 157.574 489.854H148.541C148.541 483.311 150.641 478.021 154.84 473.984C159.072 469.948 164.719 467.93 171.783 467.93C178.391 467.93 183.616 469.671 187.457 473.154C191.298 476.605 193.219 481.211 193.219 486.973C193.219 493.971 188.759 502.305 179.84 511.973L160.797 532.627H196.49V540Z" fill="black"/>
<path d="M871.043 856.059H877.83C882.094 855.993 885.447 854.87 887.889 852.689C890.33 850.508 891.551 847.562 891.551 843.852C891.551 835.518 887.4 831.352 879.1 831.352C875.193 831.352 872.068 832.475 869.725 834.721C867.413 836.934 866.258 839.88 866.258 843.559H857.225C857.225 837.927 859.275 833.256 863.377 829.545C867.511 825.801 872.752 823.93 879.1 823.93C885.805 823.93 891.062 825.704 894.871 829.252C898.68 832.8 900.584 837.732 900.584 844.047C900.584 847.139 899.575 850.134 897.557 853.031C895.571 855.928 892.853 858.093 889.402 859.525C893.309 860.762 896.32 862.813 898.436 865.678C900.584 868.542 901.658 872.042 901.658 876.176C901.658 882.556 899.575 887.618 895.408 891.361C891.242 895.105 885.822 896.977 879.148 896.977C872.475 896.977 867.039 895.17 862.84 891.557C858.673 887.943 856.59 883.174 856.59 877.25H865.672C865.672 880.993 866.893 883.988 869.334 886.234C871.775 888.48 875.047 889.604 879.148 889.604C883.51 889.604 886.847 888.464 889.158 886.186C891.469 883.907 892.625 880.635 892.625 876.371C892.625 872.237 891.355 869.063 888.816 866.85C886.277 864.636 882.615 863.497 877.83 863.432H871.043V856.059Z" fill="black"/>
<path d="M953.043 277.123H962.906V284.496H953.043V301H943.961V284.496H911.588V279.174L943.424 229.906H953.043V277.123ZM921.842 277.123H943.961V242.26L942.887 244.213L921.842 277.123Z" fill="black"/>
<path d="M487.059 651.355L490.672 615.906H527.098V624.256H498.338L496.189 643.641C499.673 641.59 503.628 640.564 508.055 640.564C514.533 640.564 519.676 642.713 523.484 647.01C527.293 651.274 529.197 657.052 529.197 664.344C529.197 671.668 527.212 677.446 523.24 681.678C519.301 685.877 513.784 687.977 506.688 687.977C500.405 687.977 495.278 686.235 491.307 682.752C487.335 679.269 485.073 674.451 484.52 668.299H493.064C493.618 672.368 495.066 675.444 497.41 677.527C499.754 679.578 502.846 680.604 506.688 680.604C510.887 680.604 514.174 679.171 516.551 676.307C518.96 673.442 520.164 669.487 520.164 664.441C520.164 659.689 518.862 655.88 516.258 653.016C513.686 650.118 510.252 648.67 505.955 648.67C502.016 648.67 498.924 649.533 496.678 651.258L494.285 653.211L487.059 651.355Z" fill="black"/>
<path d="M768.357 468.857V476.523H766.697C759.666 476.654 754.067 478.737 749.9 482.773C745.734 486.81 743.325 492.49 742.674 499.814C746.417 495.518 751.528 493.369 758.006 493.369C764.191 493.369 769.122 495.55 772.801 499.912C776.512 504.274 778.367 509.906 778.367 516.807C778.367 524.131 776.365 529.99 772.361 534.385C768.39 538.779 763.051 540.977 756.346 540.977C749.542 540.977 744.025 538.372 739.793 533.164C735.561 527.923 733.445 521.185 733.445 512.949V509.482C733.445 496.396 736.229 486.403 741.795 479.502C747.394 472.568 755.711 469.02 766.746 468.857H768.357ZM756.492 500.889C753.4 500.889 750.551 501.816 747.947 503.672C745.343 505.527 743.536 507.855 742.527 510.654V513.975C742.527 519.834 743.846 524.554 746.482 528.135C749.119 531.715 752.407 533.506 756.346 533.506C760.415 533.506 763.605 532.008 765.916 529.014C768.26 526.019 769.432 522.096 769.432 517.246C769.432 512.363 768.243 508.424 765.867 505.43C763.523 502.402 760.398 500.889 756.492 500.889Z" fill="black"/>
<path d="M402.807 853.984L373.363 920H363.891L393.236 856.328H354.76V848.906H402.807V853.984Z" fill="black"/>
</svg>
