<svg width="300" height="449" viewBox="0 0 300 449" fill="none" xmlns="http://www.w3.org/2000/svg">
<path d="M117.58 212.795L58.7902 154.005L1.2689e-05 212.795L117.58 212.795Z" fill="#FFC8AF"/>
<path d="M175.288 250.57L175.343 167.374L258.429 84.2877L258.457 167.401L175.288 250.57Z" fill="#FF4848"/>
<rect x="34.2865" y="212.292" width="83.118" height="83.118" fill="#FFC8AF"/>
<path d="M-2.5698e-06 94.575L58.7902 153.365L117.58 94.575L-2.5698e-06 94.575Z" fill="#FF4848"/>
<path d="M175.715 168.284L175.715 1.99966L258.857 85.1416L175.715 168.284Z" fill="#FF4848" stroke="#FF4848"/>
<path d="M117.717 448.596L235.297 331.016L117.717 213.435L117.717 448.596Z" fill="black"/>
<path d="M175.503 35.4209L57.9224 153.001L175.503 270.582L175.503 35.4209Z" fill="#FF4848"/>
<circle cx="66.2872" cy="183.717" r="5.71441" fill="black"/>
</svg>
