<svg width="347" height="428" viewBox="0 0 347 428" fill="none" xmlns="http://www.w3.org/2000/svg">
<path d="M98.1981 320.547L33.3257 320.548L32.4358 386.309L98.1981 320.547Z" fill="black"/>
<path d="M255.475 330.112L255.475 395.062L320.426 395.062L255.475 330.112Z" fill="black"/>
<path d="M151 228.062H280.901L215.951 163.111L151 228.062Z" fill="#FF3E3E"/>
<path d="M250.338 198.562L187.855 136.08L188.113 74.1116L250.963 136.962L250.338 198.562Z" fill="black"/>
<path d="M243.855 320.007L151 228.111L58.9998 320.007L243.855 320.007Z" fill="#FF3E3E"/>
<path d="M207.029 0L253.17 46.1407L207.029 92.2815L160.889 46.1407L207.029 0Z" fill="#FFC8AF"/>
<path d="M281.713 358.774L280.5 228.062L151 228.062L281.713 358.774Z" fill="#FF5B5B"/>
</svg>
