<svg width="381" height="362" viewBox="0 0 381 362" fill="none" xmlns="http://www.w3.org/2000/svg">
<path d="M208.436 263L208.437 327.872L274.198 328.762L208.436 263Z" fill="black"/>
<path d="M245 177.951L309.95 177.951L309.95 113L245 177.951Z" fill="black"/>
<path d="M150 211.001L241.854 302.854L241.854 211.001L150 211.001Z" fill="black"/>
<path d="M277.451 149.113L214.968 211.595L153 211.338L215.85 148.488L277.451 149.113Z" fill="black"/>
<path d="M64.9799 125L65.9847 255.965L195.693 255.713L64.9799 125Z" fill="black"/>
<path d="M150.626 32.6265H215.879V97.8794H150.626V32.6265Z" fill="#FFC8AF"/>
<path d="M149.713 210.663L149.307 80.3564L19 79.9504L149.713 210.663Z" fill="#FF4848"/>
<circle cx="201" cy="55" r="5" fill="black"/>
<circle cx="351" cy="73" r="30" fill="black"/>
</svg>
