<svg width="282" height="384" viewBox="0 0 282 384" fill="none" xmlns="http://www.w3.org/2000/svg">
<path d="M165.002 383.758L119.13 337.887L72 383.758L165.002 383.758Z" fill="black"/>
<path d="M190 175L235.927 220.927L281.854 175L190 175Z" fill="#3BBFA0"/>
<path d="M165 -0.000221252L256.854 91.8535L256.854 -0.000225267L165 -0.000221252Z" fill="black"/>
<path d="M75 383.887L75 295.524L119 251.887L119 340.771L75 383.887Z" fill="black"/>
<path d="M195.692 178.98H65.7325L64.9797 309.693L195.692 178.98Z" fill="#5CD6B8"/>
<path d="M141.5 69.4994L187.641 23.3587L233.781 69.4994L187.641 115.64L141.5 69.4994Z" fill="#FFC8AF"/>
<path d="M249.855 178.854L157.428 86.9998L64.9998 178.854L249.855 178.854Z" fill="#3BBFA0"/>
</svg>
