<svg width="1014" height="909" viewBox="0 0 1014 909" fill="none" xmlns="http://www.w3.org/2000/svg">
<path d="M731.093 7.00023L869.047 144.954L1007 7.00022L731.093 7.00023Z" fill="white" stroke="black" stroke-width="5"/>
<path d="M731.093 557.631L869.046 419.495L869.046 143.772L731.093 281.634L731.093 557.631Z" fill="white" stroke="black" stroke-width="5"/>
<rect x="454.865" y="351.415" width="195.04" height="195.04" transform="rotate(-45 454.865 351.415)" fill="white" stroke="black" stroke-width="5"/>
<path d="M731.093 282.908L869.047 144.954L731.093 7.00045L731.093 282.908Z" fill="white" stroke="black" stroke-width="5"/>
<path d="M592.966 489.05L202.773 489.05L397.87 293.954L592.966 489.05Z" fill="white" stroke="black" stroke-width="5"/>
<path d="M730.772 350.273L454.864 626.181L730.772 902.089L730.772 350.273Z" fill="white" stroke="black" stroke-width="5"/>
<path d="M592.289 489.052H202.096V879.244L592.289 489.052Z" fill="white" stroke="black" stroke-width="5"/>
<path d="M344.917 630H338.56V587.856L325.811 592.539V586.797L343.926 579.995H344.917V630Z" fill="black"/>
<path d="M662.743 640H630.136V635.454L647.362 616.313C649.914 613.42 651.669 611.073 652.626 609.272C653.606 607.45 654.096 605.57 654.096 603.633C654.096 601.035 653.31 598.905 651.737 597.241C650.165 595.578 648.069 594.746 645.448 594.746C642.304 594.746 639.854 595.646 638.1 597.446C636.368 599.224 635.502 601.707 635.502 604.897H629.179C629.179 600.317 630.648 596.615 633.588 593.789C636.55 590.964 640.504 589.551 645.448 589.551C650.074 589.551 653.731 590.77 656.42 593.208C659.109 595.623 660.453 598.848 660.453 602.881C660.453 607.78 657.331 613.613 651.088 620.381L637.758 634.839H662.743V640Z" fill="black"/>
<path d="M391.33 411.041H396.081C399.066 410.995 401.413 410.209 403.122 408.683C404.831 407.156 405.686 405.094 405.686 402.496C405.686 396.663 402.78 393.746 396.97 393.746C394.235 393.746 392.048 394.532 390.407 396.104C388.789 397.654 387.98 399.716 387.98 402.291H381.657C381.657 398.349 383.093 395.079 385.964 392.481C388.858 389.861 392.526 388.551 396.97 388.551C401.664 388.551 405.344 389.793 408.01 392.276C410.676 394.76 412.009 398.212 412.009 402.633C412.009 404.798 411.302 406.894 409.89 408.922C408.5 410.95 406.597 412.465 404.182 413.468C406.916 414.334 409.024 415.769 410.505 417.774C412.009 419.78 412.761 422.229 412.761 425.123C412.761 429.589 411.302 433.132 408.386 435.753C405.469 438.373 401.675 439.684 397.004 439.684C392.333 439.684 388.527 438.419 385.588 435.89C382.671 433.36 381.213 430.022 381.213 425.875H387.57C387.57 428.495 388.425 430.592 390.134 432.164C391.843 433.736 394.133 434.522 397.004 434.522C400.057 434.522 402.393 433.725 404.011 432.13C405.629 430.535 406.438 428.245 406.438 425.26C406.438 422.366 405.549 420.144 403.771 418.595C401.994 417.045 399.431 416.248 396.081 416.202H391.33V411.041Z" fill="black"/>
<path d="M791.83 149.286H798.734V154.447H791.83V166H785.473V154.447H762.812V150.722L785.097 116.234H791.83V149.286ZM769.989 149.286H785.473V124.882L784.721 126.249L769.989 149.286Z" fill="black"/>
<path d="M856.041 59.0488L858.57 34.2344H884.068V40.0791H863.937L862.433 53.6484C864.871 52.2129 867.639 51.4951 870.738 51.4951C875.273 51.4951 878.873 52.999 881.539 56.0068C884.205 58.9919 885.538 63.0365 885.538 68.1406C885.538 73.2676 884.148 77.3122 881.368 80.2744C878.611 83.2139 874.749 84.6836 869.781 84.6836C865.383 84.6836 861.795 83.4645 859.015 81.0264C856.235 78.5882 854.651 75.2158 854.264 70.9092H860.245C860.632 73.7575 861.646 75.9108 863.287 77.3691C864.928 78.8047 867.092 79.5225 869.781 79.5225C872.721 79.5225 875.022 78.5199 876.686 76.5146C878.372 74.5094 879.215 71.7409 879.215 68.209C879.215 64.8822 878.303 62.2161 876.48 60.2109C874.68 58.1829 872.276 57.1689 869.269 57.1689C866.511 57.1689 864.347 57.7728 862.774 58.9805L861.1 60.3477L856.041 59.0488Z" fill="black"/>
<path d="M600.95 318.2V323.566H599.788C594.866 323.658 590.947 325.116 588.03 327.941C585.114 330.767 583.427 334.743 582.972 339.87C585.592 336.862 589.17 335.358 593.704 335.358C598.034 335.358 601.486 336.885 604.061 339.938C606.658 342.992 607.957 346.934 607.957 351.765C607.957 356.892 606.556 360.993 603.753 364.069C600.973 367.146 597.236 368.684 592.542 368.684C587.78 368.684 583.917 366.861 580.955 363.215C577.993 359.546 576.512 354.829 576.512 349.064V346.638C576.512 337.478 578.46 330.482 582.356 325.651C586.276 320.798 592.098 318.314 599.822 318.2H600.95ZM592.645 340.622C590.48 340.622 588.486 341.271 586.663 342.57C584.84 343.869 583.576 345.498 582.869 347.458V349.782C582.869 353.884 583.792 357.188 585.638 359.694C587.483 362.201 589.785 363.454 592.542 363.454C595.39 363.454 597.623 362.406 599.241 360.31C600.882 358.213 601.702 355.467 601.702 352.072C601.702 348.654 600.87 345.897 599.207 343.801C597.566 341.682 595.379 340.622 592.645 340.622Z" fill="black"/>
<path d="M816.265 331.789L795.654 378H789.023L809.565 333.43H782.632V328.234H816.265V331.789Z" fill="black"/>
</svg>
