<svg width="1014" height="1040" viewBox="0 0 1014 1040" fill="none" xmlns="http://www.w3.org/2000/svg">
<path d="M614.552 748.953V938.34H803.939L614.552 748.953Z" fill="white" stroke="black" stroke-width="5"/>
<path d="M817.927 385.456L628.415 385.583L439.155 574.842L628.478 574.905L817.927 385.456Z" fill="white" stroke="black" stroke-width="5"/>
<rect x="628.487" y="74.5234" width="189.332" height="189.332" transform="rotate(90 628.487 74.5234)" fill="white" stroke="black" stroke-width="5"/>
<path d="M722.92 480.15H912.307L912.307 290.763L722.92 480.15Z" fill="white" stroke="black" stroke-width="5"/>
<path d="M706.989 842.362L439.155 574.529L706.989 574.529L706.989 842.362Z" fill="white" stroke="black" stroke-width="5"/>
<path d="M196.387 329.812L196.387 708.586L575.161 708.586L196.387 329.812Z" fill="white" stroke="black" stroke-width="5"/>
<path d="M440.444 575.161L440.444 196.387L61.6702 196.387L440.444 575.161Z" fill="white" stroke="black" stroke-width="5"/>
<path d="M316.917 333H310.56V290.856L297.811 295.539V289.797L315.926 282.995H316.917V333Z" fill="black"/>
<path d="M542.95 143.2V148.566H541.788C536.866 148.658 532.947 150.116 530.03 152.941C527.114 155.767 525.427 159.743 524.972 164.87C527.592 161.862 531.17 160.358 535.704 160.358C540.034 160.358 543.486 161.885 546.061 164.938C548.658 167.992 549.957 171.934 549.957 176.765C549.957 181.892 548.556 185.993 545.753 189.069C542.973 192.146 539.236 193.684 534.542 193.684C529.78 193.684 525.917 191.861 522.955 188.215C519.993 184.546 518.512 179.829 518.512 174.064V171.638C518.512 162.478 520.46 155.482 524.356 150.651C528.276 145.798 534.098 143.314 541.822 143.2H542.95ZM534.645 165.622C532.48 165.622 530.486 166.271 528.663 167.57C526.84 168.869 525.576 170.498 524.869 172.458V174.782C524.869 178.884 525.792 182.188 527.638 184.694C529.483 187.201 531.785 188.454 534.542 188.454C537.39 188.454 539.623 187.406 541.241 185.31C542.882 183.213 543.702 180.467 543.702 177.072C543.702 173.654 542.87 170.897 541.207 168.801C539.566 166.682 537.379 165.622 534.645 165.622Z" fill="black"/>
<path d="M622.33 663.041H627.081C630.066 662.995 632.413 662.209 634.122 660.683C635.831 659.156 636.686 657.094 636.686 654.496C636.686 648.663 633.78 645.746 627.97 645.746C625.235 645.746 623.048 646.532 621.407 648.104C619.789 649.654 618.98 651.716 618.98 654.291H612.657C612.657 650.349 614.093 647.079 616.964 644.481C619.858 641.861 623.526 640.551 627.97 640.551C632.664 640.551 636.344 641.793 639.01 644.276C641.676 646.76 643.009 650.212 643.009 654.633C643.009 656.798 642.302 658.894 640.89 660.922C639.5 662.95 637.597 664.465 635.182 665.468C637.916 666.334 640.024 667.769 641.505 669.774C643.009 671.78 643.761 674.229 643.761 677.123C643.761 681.589 642.302 685.132 639.386 687.753C636.469 690.373 632.675 691.684 628.004 691.684C623.333 691.684 619.527 690.419 616.588 687.89C613.671 685.36 612.213 682.022 612.213 677.875H618.57C618.57 680.495 619.425 682.592 621.134 684.164C622.843 685.736 625.133 686.522 628.004 686.522C631.057 686.522 633.393 685.725 635.011 684.13C636.629 682.535 637.438 680.245 637.438 677.26C637.438 674.366 636.549 672.144 634.771 670.595C632.994 669.045 630.431 668.248 627.081 668.202H622.33V663.041Z" fill="black"/>
<path d="M875.83 429.286H882.734V434.447H875.83V446H869.473V434.447H846.812V430.722L869.097 396.234H875.83V429.286ZM853.989 429.286H869.473V404.882L868.721 406.249L853.989 429.286Z" fill="black"/>
<path d="M649.041 877.049L651.57 852.234H677.068V858.079H656.937L655.433 871.648C657.871 870.213 660.639 869.495 663.738 869.495C668.273 869.495 671.873 870.999 674.539 874.007C677.205 876.992 678.538 881.036 678.538 886.141C678.538 891.268 677.148 895.312 674.368 898.274C671.611 901.214 667.749 902.684 662.781 902.684C658.383 902.684 654.795 901.465 652.015 899.026C649.235 896.588 647.651 893.216 647.264 888.909H653.245C653.632 891.757 654.646 893.911 656.287 895.369C657.928 896.805 660.092 897.522 662.781 897.522C665.721 897.522 668.022 896.52 669.686 894.515C671.372 892.509 672.215 889.741 672.215 886.209C672.215 882.882 671.303 880.216 669.48 878.211C667.68 876.183 665.276 875.169 662.269 875.169C659.511 875.169 657.347 875.773 655.774 876.98L654.1 878.348L649.041 877.049Z" fill="black"/>
<path d="M627.265 481.789L606.654 528H600.023L620.565 483.43H593.632V478.234H627.265V481.789Z" fill="black"/>
<path d="M327.743 597H295.136V592.454L312.362 573.313C314.914 570.42 316.669 568.073 317.626 566.272C318.606 564.45 319.096 562.57 319.096 560.633C319.096 558.035 318.31 555.905 316.737 554.241C315.165 552.578 313.069 551.746 310.448 551.746C307.304 551.746 304.854 552.646 303.1 554.446C301.368 556.224 300.502 558.707 300.502 561.897H294.179C294.179 557.317 295.648 553.615 298.588 550.789C301.55 547.964 305.504 546.551 310.448 546.551C315.074 546.551 318.731 547.77 321.42 550.208C324.109 552.623 325.453 555.848 325.453 559.881C325.453 564.78 322.331 570.613 316.088 577.381L302.758 591.839H327.743V597Z" fill="black"/>
</svg>
