<svg width="5520" height="3808" viewBox="0 0 5520 3808" fill="none" xmlns="http://www.w3.org/2000/svg">
<path d="M2051.06 2937.49C2051.69 2938.12 2052.76 2937.67 2052.76 2936.78L2052.76 2875.31C2052.76 2874.77 2052.32 2874.32 2051.78 2874.31L1989.46 2873.47C1988.56 2873.46 1988.11 2874.54 1988.74 2875.18L2051.06 2937.49Z" fill="black"/>
<path d="M1941 2916.44C1941 2917.33 1942.08 2917.78 1942.71 2917.15L1986.22 2873.63C1986.61 2873.24 1986.61 2872.61 1986.22 2872.22L1942.71 2828.71C1942.08 2828.08 1941 2828.52 1941 2829.41L1941 2916.44Z" fill="black"/>
<path d="M1877.71 2982.24C1877.08 2982.87 1877.52 2983.95 1878.41 2983.95H2003.49C2004.38 2983.95 2004.82 2982.87 2004.19 2982.24L1941.66 2919.71C1941.27 2919.32 1940.63 2919.32 1940.24 2919.71L1877.71 2982.24Z" fill="#FFF59E"/>
<path d="M1942.68 2828.7C1942.06 2828.07 1942.5 2827 1943.39 2827L2035.64 2827C2035.91 2827 2036.16 2827.11 2036.35 2827.29L2081.3 2872.29C2081.92 2872.92 2081.48 2874 2080.59 2874H1987.8C1987.53 2874 1987.28 2873.89 1987.09 2873.7L1942.68 2828.7Z" fill="#FFC8AF"/>
<path d="M1909.73 2824.99C1909.09 2825.62 1909.55 2826.7 1910.44 2826.69L2037.97 2825.72C2038.52 2825.71 2038.96 2825.26 2038.96 2824.71L2038.72 2698.41C2038.72 2697.52 2037.64 2697.07 2037.01 2697.7L1909.73 2824.99Z" fill="#FF4848"/>
<path d="M2036.95 2697.67C2037.58 2697.03 2037.13 2695.96 2036.24 2695.96L1909.35 2696.35C1908.8 2696.35 1908.35 2696.8 1908.35 2697.35L1907.96 2824.24C1907.96 2825.13 1909.03 2825.58 1909.67 2824.95L2036.95 2697.67Z" fill="#FF4848"/>
<path d="M1941.71 2919.85C1941.32 2919.46 1941.32 2918.82 1941.71 2918.43L1986.43 2873.71C1986.82 2873.32 1987.46 2873.32 1987.85 2873.71L2032.57 2918.43C2032.96 2918.82 2032.96 2919.46 2032.57 2919.85L1987.85 2964.57C1987.46 2964.97 1986.82 2964.97 1986.43 2964.57L1941.71 2919.85Z" fill="#FFC8AF"/>
<path d="M1077 2532.76L1141.87 2532.76L1142.76 2467L1077 2532.76Z" fill="black"/>
<path d="M1080.57 2529.52L1013.52 2529.52L1013.52 2596.57L1080.57 2529.52Z" fill="#FFC8AF"/>
<path d="M1011.95 2320V2449.9L1076.9 2384.95L1011.95 2320Z" fill="#FF4848"/>
<path d="M1132 2477L1025.56 2477L973 2530L1080.06 2530L1132 2477Z" fill="#FFC8AF"/>
<path d="M1169.86 2476.9L1076.54 2385L985 2476.9L1169.86 2476.9Z" fill="#FF4848"/>
<path d="M1141.71 2450.66L1141.31 2320.36L1011 2319.95L1141.71 2450.66Z" fill="#FF4848"/>
<path d="M1076.63 2597.88V2532.63H1141.88V2597.88H1076.63Z" fill="black"/>
<path d="M1105 1280.87L1059.13 1235L1012 1280.87L1105 1280.87Z" fill="#FFC8AF"/>
<path d="M1013 1192L1058.93 1237.93L1104.85 1192L1013 1192Z" fill="#6A2C70"/>
<path d="M1148.95 1112V1241.9L1213.9 1176.95L1148.95 1112Z" fill="#6A2C70"/>
<path d="M1148.53 1306.82L1214.32 1241.02L1214.29 1176L1148.1 1242.18L1148.53 1306.82Z" fill="#6A2C70"/>
<path d="M1103 1465.86L1194.9 1372.54L1103 1281L1103 1465.86Z" fill="black"/>
<path d="M1038.63 1279.63H1103.88V1344.88H1038.63V1279.63Z" fill="#FFC8AF"/>
<path d="M1150.76 1145.4L1058.9 1237.83L1150.76 1330.26L1150.76 1145.4Z" fill="#6A2C70"/>
<path d="M2747.44 1312L2747.44 1376.87L2813.2 1377.76L2747.44 1312Z" fill="black"/>
<path d="M2648.43 1233.48H2583.48V1298.43L2648.43 1233.48Z" fill="black"/>
<path d="M2707.85 1174L2616 1265.85H2707.85V1174Z" fill="black"/>
<path d="M2785.57 1350.29L2700.84 1265.56L2700.72 1182L2785.95 1267.23L2785.57 1350.29Z" fill="black"/>
<path d="M2857.69 1078.98L2726.73 1079.98L2726.98 1209.69L2857.69 1078.98Z" fill="#FF3E3E"/>
<path d="M2741.14 987L2787.28 1033.14L2741.14 1079.28L2695 1033.14L2741.14 987Z" fill="#FFC8AF"/>
<path d="M2727.71 1209.66L2727.3 1079.36L2597 1078.95L2727.71 1209.66Z" fill="#FF3E3E"/>
<path d="M3592 932.114L3637.87 886.242L3592 839.112L3592 932.114Z" fill="#333333"/>
<path d="M3572.85 930.039L3526.93 884.112L3481 930.039H3572.85Z" fill="black"/>
<path d="M3500 794.112L3591.85 885.966L3591.85 794.112L3500 794.112Z" fill="#333333"/>
<path d="M3500.57 794.113L3569.33 862.872L3569.65 930.465L3500.48 861.301L3500.57 794.113Z" fill="black"/>
<path d="M3495.71 793.805L3494.71 662.84L3365 663.092L3495.71 793.805Z" fill="#FF3E3E"/>
<path d="M3513.77 598.626V663.879H3448.51V598.626H3513.77Z" fill="#FFC8AF"/>
<path d="M3494.95 663.112L3495.36 793.419L3625.66 793.825L3494.95 663.112Z" fill="#FF5B5B"/>
<path d="M4726 2807.89L4771.87 2762.02L4726 2714.89L4726 2807.89Z" fill="#FF4848"/>
<path d="M4438 2861L4483.93 2906.93L4529.85 2861L4438 2861Z" fill="black"/>
<path d="M4595.85 2769L4504 2860.85H4595.85V2769Z" fill="black"/>
<path d="M4771 2761.89L4771 2854.27L4726 2899.89L4726 2806.96L4771 2761.89Z" fill="#FF4848"/>
<path d="M4725.89 2714.89L4634 2808.2L4725.89 2899.74L4725.89 2714.89Z" fill="#FF5B5B"/>
<path d="M4765.99 2658.96L4749.1 2721.99L4686.07 2705.1L4702.96 2642.07L4765.99 2658.96Z" fill="#FFC8AF"/>
<path d="M4594.95 2768.89L4595.35 2899.19L4725.66 2899.6L4594.95 2768.89Z" fill="#333333"/>
<path d="M1655.7 1984.93L1599.52 1952.49L1565.87 2009L1655.7 1984.93Z" fill="black"/>
<path d="M1625.82 1776.81L1682.07 1809.29L1714.54 1753.04L1625.82 1776.81Z" fill="black"/>
<path d="M1556.38 1614.24L1668.88 1679.19L1645.1 1590.47L1556.38 1614.24Z" fill="black"/>
<path d="M1568.8 2008.34L1545.93 1922.99L1577.14 1869.45L1600.14 1955.31L1568.8 2008.34Z" fill="black"/>
<path d="M1632.35 1779.18L1506.82 1812.82L1539.92 1939.27L1632.35 1779.18Z" fill="black"/>
<path d="M1551.67 1687.46L1584.29 1630.95L1640.8 1663.57L1608.18 1720.08L1551.67 1687.46Z" fill="#FFC8AF"/>
<path d="M1684.63 1765.04L1571.58 1700.24L1506.08 1812.89L1684.63 1765.04Z" fill="black"/>
<path d="M4567.44 1957L4567.44 2021.87L4633.2 2022.76L4567.44 1957Z" fill="black"/>
<path d="M4604 1871.95L4668.95 1871.95L4668.95 1807L4604 1871.95Z" fill="black"/>
<path d="M4509 1905L4600.85 1996.85L4600.85 1905L4509 1905Z" fill="black"/>
<path d="M4636.45 1843.11L4573.97 1905.6L4512 1905.34L4574.85 1842.49L4636.45 1843.11Z" fill="black"/>
<path d="M4423.98 1819L4424.98 1949.96L4554.69 1949.71L4423.98 1819Z" fill="black"/>
<path d="M4509.63 1726.63H4574.88V1791.88H4509.63V1726.63Z" fill="#FFC8AF"/>
<path d="M4508.71 1904.66L4508.31 1774.36L4378 1773.95L4508.71 1904.66Z" fill="#FF4848"/>
<path d="M3451 2789.76L3515.87 2789.76L3516.76 2724L3451 2789.76Z" fill="black"/>
<path d="M3315.47 2724L3315.47 2788.95L3380.43 2788.95L3315.47 2724Z" fill="black"/>
<path d="M3482.88 2788.93H3352.98L3417.93 2853.88L3482.88 2788.93Z" fill="black"/>
<path d="M3464.34 2962.45L3401.86 2899.97L3402.11 2838L3464.96 2900.85L3464.34 2962.45Z" fill="#FF3E3E"/>
<path d="M3525.86 3022.89L3432.54 2931L3341 3022.89L3525.86 3022.89Z" fill="#FF3E3E"/>
<path d="M3394.96 2701.07L3457.99 2717.96L3441.1 2780.99L3378.07 2764.1L3394.96 2701.07Z" fill="#FFC8AF"/>
<path d="M3418 2632L3510.43 2723.85L3602.86 2632H3418Z" fill="#FF4848"/>
<path d="M2165.39 853.329L2102.73 870.12L2118.89 933.871L2165.39 853.329Z" fill="black"/>
<path d="M2319.78 821.861L2336.6 884.598L2399.33 867.788L2319.78 821.861Z" fill="black"/>
<path d="M2192.46 750.329L2317.93 716.708L2238.38 670.781L2192.46 750.329Z" fill="#FF3E3E"/>
<path d="M2280.78 696.124L2204.25 651.942L2188.46 592.019L2265.44 636.46L2280.78 696.124Z" fill="black"/>
<path d="M2305.95 815.108L2192.47 750.377L2127.39 862.952L2305.95 815.108Z" fill="#FF3E3E"/>
<path d="M2187.55 515.536L2244.06 548.163L2211.43 604.673L2154.92 572.047L2187.55 515.536Z" fill="#FFC8AF"/>
<path d="M2352.55 842.757L2317.54 716.812L2192.46 750.329L2352.55 842.757Z" fill="#FF5B5B"/>
</svg>
